PathFileType	4	(X/Y/Z)	/Users/itak/Documents/Research/Walk-IL/dataset/trc/00355_00011.trc
DataRate	CameraRate	NumFrames	NumMarkers	Units	OrigDataRate	OrigDataStartFrame	OrigNumFrames
100.000000	100.000000	4	56	mm	100.000000	186	746
Frame#	Time	RPSI			LPSI			STRN			T10			C7			CLAV			RBAK			LBAK			LSHO			LUPA			LAEL			LAOL			LWTS			LWPS			LFRA			LHPS			LHTS			RSHO			RUPA			RAEL			RAOL			RWTS			RWPS			RFRA			RIFD			RHTS			RHPS			RBHD			LFHD			RFHD			LBHD			LHIP			RHIP			RASI			LASI			LKNE			LTHI			LANK			LTIP			LTOE			LMT1			LMT5			LHEE			RKNE			RANK			RTIP			RTOE			RMT1			RMT5			RHEE			L3			RTHI			LIFD			*53			*54			*55			
		X1	Y1	Z1	X2	Y2	Z2	X3	Y3	Z3	X4	Y4	Z4	X5	Y5	Z5	X6	Y6	Z6	X7	Y7	Z7	X8	Y8	Z8	X9	Y9	Z9	X10	Y10	Z10	X11	Y11	Z11	X12	Y12	Z12	X13	Y13	Z13	X14	Y14	Z14	X15	Y15	Z15	X16	Y16	Z16	X17	Y17	Z17	X18	Y18	Z18	X19	Y19	Z19	X20	Y20	Z20	X21	Y21	Z21	X22	Y22	Z22	X23	Y23	Z23	X24	Y24	Z24	X25	Y25	Z25	X26	Y26	Z26	X27	Y27	Z27	X28	Y28	Z28	X29	Y29	Z29	X30	Y30	Z30	X31	Y31	Z31	X32	Y32	Z32	X33	Y33	Z33	X34	Y34	Z34	X35	Y35	Z35	X36	Y36	Z36	X37	Y37	Z37	X38	Y38	Z38	X39	Y39	Z39	X40	Y40	Z40	X41	Y41	Z41	X42	Y42	Z42	X43	Y43	Z43	X44	Y44	Z44	X45	Y45	Z45	X46	Y46	Z46	X47	Y47	Z47	X48	Y48	Z48	X49	Y49	Z49	X50	Y50	Z50	X51	Y51	Z51	X52	Y52	Z52	X53	Y53	Z53	X54	Y54	Z54	X55	Y55	Z55	X56	Y56	Z56	

187	1.86	19.4996337890625	963.6669311523438	858.1768798828125	-49.49349975585938	967.2845458984375	969.2617797851562	-215.1053771972656	1215.659423828125	791.665283203125	-2.070352792739868	1150.681030273438	910.4942626953125	-48.69173812866211	1397.637084960938	900.9503173828125	-180.4461059570312	1341.785888671875	815.4512329101562	31.06201171875	1259.390014648438	864.318115234375	-92.3873291015625	1360.707763671875	991.354736328125	-194.1405639648438	1379.1748046875	996.6290893554688	-207.130859375	1263.898315429688	1069.176879882812	-215.2574157714844	1060.628540039062	1088.822631835938	-134.1583557128906	1050.602905273438	1064.447998046875	-276.0953979492188	813.8070678710938	1017.367065429688	-263.8877563476562	804.7808227539062	1084.346923828125	-228.40185546875	955.2108764648438	1094.869873046875	-258.2386169433594	734.5319213867188	1082.241577148438	-293.3263244628906	735.4639282226562	1028.321411132812	-14.89862632751465	1387.026489257812	731.777099609375	23.57854652404785	1323.259643554688	678.3251953125	5.817748069763184	1062.780395507812	608.03466796875	8.554631233215332	1040.692016601562	699.885498046875	-173.6255187988281	886.0155029296875	577.1229248046875	-122.9313201904297	858.291748046875	527.0138549804688	-27.76807975769043	1004.560974121094	580.4993286132812	-239.2128448486328	729.6512451171875	541.1564331054688	-227.8108367919922	803.2969970703125	536.9888305664062	-165.7544555664062	786.0357666015625	510.8265686035156	-38.75139617919922	1599.997802734375	810.1072998046875	-246.1461181640625	1611.54150390625	788.8655395507812	-173.1660461425781	1606.882690429688	718.517333984375	-121.2773284912109	1603.027099609375	928.1473388671875	-182.2828369140625	920.2830200195312	1010.704162597656	7.452642440795898	907.8538208007812	724.1142578125	-102.8566741943359	938.568359375	704.9662475585938	-248.5129547119141	948.2445068359375	894.552978515625	-362.1618347167969	496.2704467773438	924.9375610351562	-329.0399475097656	623.4800415039062	946.5540161132812	-139.8388366699219	160.6336059570312	1110.84521484375	-264.7647094726562	317.5526123046875	1023.853942871094	-264.345458984375	51.67942810058594	974.7257690429688	-186.9330902099609	75.47622680664062	967.968994140625	-236.0595855712891	89.07884216308594	1070.997680664062	-79.31024932861328	171.1170654296875	1066.225708007812	-110.8154830932617	444.6803283691406	763.6434326171875	-93.82135009765625	48.38162612915039	883.4404296875	-133.1123046875	325.8398132324219	786.246337890625	-278.9865417480469	47.51027297973633	806.191162109375	-262.1890563964844	43.11296844482422	872.4432983398438	-162.7811584472656	37.67132186889648	807.5021362304688	-86.06298828125	51.5278434753418	951.73583984375	-6.121424674987793	1031.775268554688	907.6573486328125	-84.36087799072266	699.5628051757812	694.8818969726562	-274.1289672851562	654.3890991210938	1012.70849609375	nan	nan	nan	nan	nan	nan	nan	nan	nan	
188	1.87	13.33461570739746	964.0654907226562	855.6414794921875	-57.17422103881836	967.8900756835938	965.6886596679688	-220.2509765625	1216.135375976562	786.0072631835938	-8.118583679199219	1151.16162109375	907.01708984375	-54.79593658447266	1398.111206054688	896.95263671875	-185.8357391357422	1342.19580078125	810.2505493164062	25.22196960449219	1259.815307617188	860.8461303710938	-99.37828826904297	1361.097778320312	986.8523559570312	-201.1490783691406	1379.495483398438	991.3279418945312	-214.5471649169922	1264.303588867188	1063.825927734375	-221.8866424560547	1061.039794921875	1083.621826171875	-140.5351409912109	1051.391967773438	1059.900024414062	-280.601318359375	813.4938354492188	1012.591003417969	-268.974609375	804.849609375	1079.706298828125	-234.4920654296875	955.6136474609375	1089.923461914062	-262.750244140625	734.6221313476562	1077.969360351562	-297.3623962402344	735.0592041015625	1023.71875	-19.61700248718262	1387.653686523438	728.0809936523438	19.08777046203613	1323.956909179688	674.7360229492188	0.0360536128282547	1063.94091796875	602.7442016601562	2.226284503936768	1041.234252929688	694.3889770507812	-182.4432678222656	890.8457641601562	570.0458984375	-132.0792236328125	862.2864990234375	520.0829467773438	-34.18946075439453	1006.423645019531	574.7147827148438	-251.2194061279297	736.1452026367188	532.9397583007812	-238.1889495849609	809.5704956054688	529.1639404296875	-176.3755187988281	791.0523071289062	503.3005065917969	-44.74253845214844	1600.557250976562	805.7975463867188	-252.0109405517578	1611.41943359375	782.8016967773438	-178.419189453125	1606.869750976562	713.0555419921875	-128.3171844482422	1603.527465820312	923.2022094726562	-190.8234710693359	921.3463134765625	1004.902770996094	3.480317115783691	907.8428344726562	721.5645751953125	-106.3222045898438	938.552978515625	700.5409545898438	-254.9632873535156	949.186767578125	887.7074584960938	-372.074462890625	498.988525390625	913.046142578125	-338.6438598632812	626.0597534179688	936.2921142578125	-168.6433410644531	150.071044921875	1096.75927734375	-283.9971923828125	314.5750122070312	1010.804748535156	-297.3594970703125	51.66714859008789	956.2932739257812	-218.2679595947266	70.627197265625	951.3599853515625	-268.2967834472656	85.38510131835938	1053.641845703125	-106.6816101074219	158.0245971679688	1053.404174804688	-111.4202117919922	444.3035888671875	762.0929565429688	-93.77494812011719	48.28817749023438	883.4190063476562	-133.5878295898438	325.5831604003906	785.4127197265625	-278.9349060058594	47.5201530456543	806.134765625	-262.0715637207031	43.12113571166992	872.4078369140625	-162.7311096191406	37.6119270324707	807.4271850585938	-85.961181640625	51.61340713500977	951.6631469726562	-12.59365367889404	1032.3271484375	904.4879760742188	-86.70337677001953	699.1529541015625	692.59228515625	-277.3069458007812	654.0775146484375	1008.609802246094	nan	nan	nan	nan	nan	nan	nan	nan	nan	
189	1.88	7.102910995483398	964.4005126953125	853.1326904296875	-64.96343994140625	968.4024658203125	962.0734252929688	-225.4277496337891	1216.4462890625	780.3023071289062	-14.2082347869873	1151.509521484375	903.5364379882812	-60.98904418945312	1398.437866210938	892.902099609375	-191.24755859375	1342.428100585938	804.9953002929688	19.36909675598145	1260.111572265625	857.3873291015625	-106.4738388061523	1361.326538085938	982.2767944335938	-208.2416381835938	1379.631591796875	985.9375	-222.0368347167969	1264.518310546875	1058.366088867188	-228.6209716796875	1061.247802734375	1078.321899414062	-147.0201110839844	1052.005493164062	1055.299438476562	-285.1437377929688	813.0204467773438	1007.71044921875	-274.1470642089844	804.7501220703125	1074.9638671875	-240.6795349121094	955.8359375	1084.879760742188	-267.3407897949219	734.5560913085938	1073.640747070312	-301.430908203125	734.503173828125	1019.017028808594	-24.35309791564941	1388.097045898438	724.3497314453125	14.61216354370117	1324.458618164062	671.1417846679688	-5.563568115234375	1064.881958007812	597.5269165039062	-3.87154483795166	1041.61083984375	688.9680786132812	-190.9191436767578	895.4130859375	563.123779296875	-140.8638458251953	866.0323486328125	513.3225708007812	-40.38651657104492	1008.045593261719	569.0285034179688	-262.7589721679688	742.4021606445312	524.9694213867188	-248.131103515625	815.5603637695312	521.5585327148438	-186.5815124511719	795.8139038085938	495.9874267578125	-50.71712112426758	1600.955078125	801.4755859375	-257.84130859375	1611.189086914062	776.6846923828125	-183.6265411376953	1606.736083984375	707.5629272460938	-135.3864593505859	1603.872924804688	918.2354736328125	-199.4347076416016	922.213623046875	999.0001220703125	-0.5012619495391846	907.7824096679688	719.078369140625	-109.7916107177734	938.4418334960938	696.1316528320312	-261.388916015625	949.931884765625	880.8013305664062	-381.1834411621094	501.2342834472656	901.4691162109375	-347.6935424804688	628.2479858398438	926.1754150390625	-197.8153991699219	139.2838134765625	1081.618041992188	-303.0009765625	311.2167358398438	997.421142578125	-329.7342834472656	51.8498649597168	936.6791381835938	-249.344482421875	65.99539184570312	933.5947875976562	-300.3056030273438	81.66877746582031	1035.1748046875	-134.5524597167969	144.7825164794922	1039.543212890625	-112.1343688964844	443.9301452636719	760.4257202148438	-93.7470703125	48.21761322021484	883.385986328125	-134.157470703125	325.2830810546875	784.5072631835938	-278.8931274414062	47.50954055786133	806.0945434570312	-261.9793090820312	43.11977767944336	872.3765258789062	-162.6950225830078	37.55478286743164	807.3450317382812	-85.88108825683594	51.69478607177734	951.6116333007812	-19.17698287963867	1032.731811523438	901.2967529296875	-89.04624938964844	698.7390747070312	690.2902221679688	-280.4883117675781	653.6021728515625	1004.467468261719	nan	nan	nan	nan	nan	nan	nan	nan	nan	
190	1.89	0.8051912188529968	964.6492309570312	850.6336059570312	-72.86503601074219	968.791259765625	958.4046630859375	-230.6439666748047	1216.5859375	774.5438232421875	-20.34183883666992	1151.720458984375	900.0650634765625	-67.28206634521484	1398.599243164062	888.7916259765625	-196.6868896484375	1342.473266601562	799.68505859375	13.49533748626709	1260.270629882812	853.9456787109375	-113.6775054931641	1361.382080078125	977.6194458007812	-215.4187164306641	1379.578002929688	980.4509887695312	-229.5966339111328	1264.541137695312	1052.796508789062	-235.4588623046875	1061.252075195312	1072.927368164062	-153.6171875	1052.431396484375	1050.640014648438	-289.7379760742188	812.3888549804688	1002.727355957031	-279.4090270996094	804.4815673828125	1070.120361328125	-246.9594879150391	955.8711547851562	1079.738037109375	-272.0204162597656	734.3396606445312	1069.241821289062	-305.54345703125	733.7922973632812	1014.218322753906	-29.10912895202637	1388.34326171875	720.5863037109375	10.15194702148438	1324.75146484375	667.5425415039062	-10.99260807037354	1065.591064453125	592.3787841796875	-9.751035690307617	1041.803466796875	683.6201171875	-199.0479278564453	899.6768188476562	556.3778076171875	-149.2968597412109	869.5048217773438	506.7310485839844	-46.38027572631836	1009.414855957031	563.4360961914062	-273.8255615234375	748.3733520507812	517.2451171875	-257.6425476074219	821.2294921875	514.18505859375	-196.3890991210938	800.2908935546875	488.8727416992188	-56.68363571166992	1601.178588867188	797.1451416015625	-263.6376647949219	1610.844604492188	770.510986328125	-188.7923736572266	1606.473266601562	702.0399780273438	-142.4849395751953	1604.051879882812	913.2313842773438	-208.1311492919922	922.8652954101562	992.98193359375	-4.501883983612061	907.64990234375	716.638671875	-113.2420425415039	938.2239379882812	691.73291015625	-267.7849426269531	950.466796875	873.8150024414062	-389.5462646484375	502.9513244628906	890.2505493164062	-356.1994018554688	629.9725952148438	916.236572265625	-227.2595672607422	128.4532775878906	1065.329956054688	-321.7933044433594	307.5160522460938	983.6659545898438	-361.3128662109375	52.32488632202148	915.8402099609375	-280.0061340332031	61.74795150756836	914.5924682617188	-331.9649658203125	78.07005310058594	1015.514953613281	-162.8297119140625	131.5873413085938	1024.566772460938	-113.0108489990234	443.5624694824219	758.6766357421875	-93.74301147460938	48.17847442626953	883.3403930664062	-134.8519287109375	324.9377136230469	783.5223388671875	-278.8622741699219	47.47795486450195	806.0732421875	-261.9248962402344	43.10401916503906	872.3560180664062	-162.675537109375	37.50434875488281	807.2626342773438	-85.82733917236328	51.76831817626953	951.5836181640625	-25.85641479492188	1032.982299804688	898.0841674804688	-91.40874481201172	698.287109375	687.9705810546875	-283.7091369628906	652.9724731445312	1000.285278320312	nan	nan	nan	nan	nan	nan	nan	nan	nan	
